<svg width="138" height="44" viewBox="0 0 138 44" fill="none" xmlns="http://www.w3.org/2000/svg">
<g clip-path="url(#clip0_2084_79053)">
<path d="M9.21094 44.0409C8.85894 44.0409 8.51494 44.0359 8.16594 44.0279C7.44229 44.0185 6.72033 43.9556 6.00594 43.8399C5.33984 43.7257 4.69444 43.5131 4.09094 43.2089C3.49364 42.9072 2.94869 42.5115 2.47694 42.0369C1.99831 41.5683 1.5997 41.0244 1.29694 40.4269C0.991453 39.8264 0.779989 39.1826 0.669938 38.5179C0.551233 37.8038 0.487047 37.0817 0.477938 36.3579C0.470938 36.1139 0.460938 35.3049 0.460938 35.3049V8.68489C0.460938 8.68489 0.470938 7.88789 0.477938 7.65389C0.486938 6.93089 0.550938 6.20989 0.668938 5.49589C0.77931 4.82925 0.991097 4.18343 1.29694 3.58089C1.91261 2.38088 2.89004 1.40484 4.09094 0.790891C4.69249 0.4884 5.33596 0.277729 5.99994 0.165891C6.71694 0.0488906 7.44194 -0.0141094 8.16794 -0.0241094L9.21094 -0.0371094H127.972L129.027 -0.0231094C129.746 -0.0141094 130.464 0.0478906 131.174 0.164891C131.845 0.278282 132.496 0.490944 133.105 0.795891C134.304 1.41114 135.28 2.38647 135.896 3.58489C136.197 4.18289 136.406 4.82389 136.515 5.48489C136.635 6.20389 136.702 6.93089 136.715 7.65989C136.719 7.98589 136.719 8.33689 136.719 8.68489C136.728 9.11789 136.728 9.52889 136.728 9.94389V34.0609C136.728 34.4809 136.728 34.8889 136.719 35.3009C136.719 35.6749 136.719 36.0189 136.714 36.3709C136.701 37.0879 136.635 37.8009 136.517 38.5079C136.409 39.1775 136.199 39.8264 135.893 40.4319C135.588 41.0226 135.192 41.5615 134.719 42.0289C134.247 42.5058 133.701 42.9036 133.102 43.2069C132.495 43.5136 131.845 43.7273 131.174 43.8409C130.46 43.9569 129.738 44.0209 129.014 44.0289C128.676 44.0369 128.321 44.0409 127.977 44.0409L126.725 44.0439L9.20994 44.0409H9.21094Z" fill="white"/>
<path d="M28.3381 21.8731C28.3525 20.8722 28.6196 19.8912 29.1148 19.0212C29.6099 18.1513 30.3169 17.4206 31.1701 16.8971C30.6267 16.123 29.9103 15.4863 29.0778 15.0375C28.2452 14.5888 27.3195 14.3404 26.3741 14.3121C24.3561 14.1011 22.4001 15.5161 21.3711 15.5161C20.3231 15.5161 18.7401 14.3331 17.0351 14.3681C15.9325 14.4034 14.8577 14.723 13.9151 15.2961C12.9738 15.8685 12.1969 16.6751 11.6601 17.6371C9.33611 21.6491 11.0701 27.5471 13.2961 30.7901C14.4091 32.3781 15.7111 34.1531 17.4151 34.0901C19.0811 34.0201 19.7041 33.0301 21.7161 33.0301C23.7091 33.0301 24.2941 34.0901 26.0311 34.0501C27.8211 34.0201 28.9471 32.4541 30.0211 30.8511C30.8213 29.7198 31.4372 28.469 31.8461 27.1451C30.8075 26.7072 29.9206 25.9734 29.2961 25.0351C28.6727 24.0983 28.3395 22.9984 28.3381 21.8731ZM25.0561 12.1791C26.0312 11.0129 26.5121 9.51183 26.3961 7.99609C24.907 8.15161 23.5308 8.86163 22.5411 9.98509C22.0582 10.533 21.6882 11.1709 21.4522 11.8621C21.2163 12.5533 21.119 13.2842 21.1661 14.0131C21.9109 14.0207 22.6477 13.8596 23.3213 13.542C23.995 13.2244 24.5881 12.7585 25.0561 12.1791ZM48.3361 30.2281H42.8661L41.5531 34.0961H39.2361L44.4161 19.7861H46.8241L52.0051 34.0961H49.6501L48.3371 30.2281H48.3361ZM43.4331 28.4431H47.7691L45.6311 22.1661H45.5711L43.4331 28.4431ZM63.1951 28.8811C63.1951 32.1221 61.4551 34.2051 58.8291 34.2051C58.1646 34.2395 57.5037 34.0867 56.9218 33.764C56.3398 33.4414 55.86 32.9619 55.5371 32.3801H55.4871V37.5481H53.3391V23.6631H55.4191V25.3981H55.4581C55.7947 24.8182 56.2822 24.3405 56.8688 24.0158C57.4554 23.6911 58.119 23.5315 58.7891 23.5541C61.4441 23.5541 63.1951 25.6481 63.1951 28.8811ZM60.9871 28.8811C60.9871 26.7681 59.8931 25.3791 58.2221 25.3791C56.5821 25.3791 55.4781 26.7971 55.4781 28.8801C55.4781 30.9821 56.5821 32.3901 58.2221 32.3901C59.8921 32.3901 60.9871 31.0131 60.9871 28.8811ZM74.7101 28.8811C74.7101 32.1221 72.9701 34.2051 70.3441 34.2051C69.6796 34.2395 69.0187 34.0867 68.4368 33.764C67.8548 33.4414 67.375 32.9619 67.0521 32.3801H67.0021V37.5481H64.8551V23.6631H66.9331V25.3981H66.9731C67.3097 24.8182 67.7972 24.3405 68.3838 24.0158C68.9704 23.6911 69.634 23.5315 70.3041 23.5541C72.9601 23.5541 74.7101 25.6481 74.7101 28.8811ZM72.5031 28.8811C72.5031 26.7681 71.4081 25.3791 69.7381 25.3791C68.0971 25.3791 66.9931 26.7971 66.9931 28.8801C66.9931 30.9821 68.0971 32.3901 69.7381 32.3901C71.4081 32.3901 72.5031 31.0131 72.5031 28.8811ZM82.3201 30.1091C82.4801 31.5291 83.8621 32.4591 85.7511 32.4591C87.5611 32.4591 88.8641 31.5291 88.8641 30.2491C88.8641 29.1381 88.0781 28.4731 86.2191 28.0171L84.3591 27.5701C81.7241 26.9361 80.5001 25.7071 80.5001 23.7121C80.5001 21.2431 82.6581 19.5471 85.7201 19.5471C88.7541 19.5471 90.8331 21.2431 90.9031 23.7121H88.7351C88.6051 22.2841 87.4211 21.4221 85.6911 21.4221C83.9611 21.4221 82.7781 22.2941 82.7781 23.5641C82.7781 24.5761 83.5341 25.1711 85.3831 25.6271L86.9641 26.0141C89.9091 26.7081 91.1311 27.8871 91.1311 29.9811C91.1311 32.6581 88.9931 34.3351 85.5921 34.3351C82.4101 34.3351 80.2611 32.6971 80.1221 30.1091H82.3201ZM95.7681 21.1941V23.6631H97.7581V25.3591H95.7681V31.1111C95.7681 32.0041 96.1661 32.4211 97.0411 32.4211C97.2771 32.4161 97.5131 32.4001 97.7471 32.3711V34.0571C97.3541 34.1303 96.9548 34.1635 96.5551 34.1561C94.4361 34.1561 93.6101 33.3621 93.6101 31.3391V25.3591H92.0901V23.6631H93.6111V21.1931H95.7691L95.7681 21.1941ZM98.9091 28.8811C98.9091 25.5971 100.847 23.5351 103.871 23.5351C106.904 23.5351 108.834 25.5981 108.834 28.8801C108.834 32.1721 106.914 34.2261 103.871 34.2261C100.828 34.2261 98.9091 32.1731 98.9091 28.8811ZM106.646 28.8811C106.646 26.6281 105.611 25.2991 103.871 25.2991C102.131 25.2991 101.096 26.6391 101.096 28.8801C101.096 31.1411 102.131 32.4601 103.871 32.4601C105.611 32.4601 106.646 31.1421 106.646 28.8811ZM110.605 23.6631H112.653V25.4391H112.702C112.841 24.8835 113.167 24.3928 113.626 24.0495C114.084 23.7061 114.647 23.5312 115.219 23.5541C115.467 23.5531 115.713 23.5801 115.955 23.6341V25.6371C115.643 25.5417 115.317 25.4978 114.99 25.5071C114.678 25.4946 114.367 25.5495 114.079 25.6681C113.79 25.7866 113.53 25.9661 113.317 26.1941C113.105 26.422 112.944 26.6932 112.847 26.9891C112.749 27.285 112.717 27.5985 112.752 27.9081V34.0961H110.604L110.605 23.6631ZM125.857 31.0311C125.568 32.9261 123.718 34.2261 121.352 34.2261C118.308 34.2261 116.419 32.1921 116.419 28.9301C116.419 25.6571 118.318 23.5351 121.261 23.5351C124.156 23.5351 125.976 25.5181 125.976 28.6811V29.4151H118.587V29.5451C118.553 29.9296 118.601 30.317 118.729 30.6813C118.856 31.0457 119.06 31.3787 119.326 31.6582C119.593 31.9378 119.915 32.1573 120.273 32.3023C120.631 32.4473 121.015 32.5144 121.401 32.4991C121.908 32.5473 122.417 32.4306 122.853 32.1663C123.288 31.902 123.627 31.5042 123.818 31.0321L125.857 31.0311ZM118.597 27.9181H123.828C123.857 27.3972 123.723 26.8803 123.444 26.4394C123.165 25.9984 122.756 25.6554 122.273 25.4581C121.952 25.3265 121.608 25.2625 121.261 25.2701C120.912 25.2682 120.565 25.3352 120.242 25.4674C119.918 25.5995 119.624 25.7941 119.376 26.0401C119.129 26.2862 118.932 26.5788 118.799 26.9012C118.665 27.2235 118.596 27.5691 118.597 27.9181ZM41.9081 11.9211H42.8301C42.9885 11.9407 43.1493 11.9273 43.3023 11.8819C43.4554 11.8364 43.5974 11.7599 43.7194 11.657C43.8415 11.5541 43.941 11.4271 44.0116 11.2839C44.0823 11.1408 44.1226 10.9846 44.1301 10.8251C44.1301 10.1911 43.6511 9.78209 42.8401 9.78209C42.5954 9.74824 42.3462 9.78867 42.1247 9.89815C41.9033 10.0076 41.7198 10.1811 41.5981 10.3961C41.5181 10.5391 41.4671 10.6961 41.4481 10.8591H40.4361C40.4535 10.5635 40.5317 10.2746 40.6659 10.0106C40.8002 9.74668 40.9875 9.51328 41.2161 9.32509C41.4449 9.13632 41.71 8.99657 41.9951 8.91452C42.2801 8.83246 42.579 8.80985 42.8731 8.84809C44.2301 8.84809 45.1861 9.60609 45.1861 10.6971C45.1893 11.0631 45.0666 11.4191 44.8384 11.7053C44.6103 11.9916 44.2906 12.1906 43.9331 12.2691V12.3501C44.3581 12.3701 44.7571 12.5541 45.0441 12.8661C45.3321 13.1781 45.4841 13.5901 45.4671 14.0131C45.4201 14.4719 45.2358 14.9058 44.9385 15.2583C44.6411 15.6108 44.2444 15.8655 43.8001 15.9891C43.5049 16.0718 43.1963 16.0949 42.8921 16.0571C42.4333 16.119 41.9665 16.041 41.5528 15.8333C41.139 15.6257 40.7976 15.298 40.5731 14.8931C40.4252 14.6243 40.333 14.3284 40.3021 14.0231H41.3301C41.3921 14.6801 41.9981 15.1051 42.8921 15.1051C43.7851 15.1051 44.3691 14.6281 44.3691 13.9561C44.3691 13.2751 43.8191 12.8561 42.8591 12.8561H41.9081V11.9211ZM46.6351 14.4231C46.6351 13.4891 47.3331 12.9511 48.5701 12.8741L49.9801 12.7941V12.3451C49.9801 11.7971 49.6181 11.4881 48.9141 11.4881C48.3411 11.4881 47.9451 11.6981 47.8301 12.0651H46.8361C46.9411 11.1731 47.7831 10.6021 48.9631 10.6021C50.2671 10.6021 51.0031 11.2491 51.0031 12.3451V15.8911H50.0131V15.1611H49.9331C49.7679 15.4232 49.5361 15.6368 49.2613 15.78C48.9865 15.9232 48.6786 15.9909 48.3691 15.9761C48.0404 16.01 47.7093 15.9397 47.4227 15.7751C47.1362 15.6106 46.9086 15.3601 46.7721 15.0591C46.6821 14.8591 46.6361 14.6421 46.6351 14.4231ZM49.9801 13.9801V13.5461L48.7091 13.6271C47.9921 13.6751 47.6671 13.9181 47.6671 14.3751C47.6671 14.8421 48.0741 15.1151 48.6321 15.1151C48.8785 15.1397 49.1265 15.0894 49.3438 14.9708C49.5612 14.8521 49.7376 14.6706 49.8501 14.4501C49.9246 14.3038 49.9688 14.1439 49.9801 13.9801ZM53.7301 11.5641V15.8911H52.7021V10.7011H56.1281V11.5641H53.7301ZM62.3521 13.2941C62.3521 14.9431 61.5161 15.9761 60.2021 15.9761C59.8801 15.9979 59.5585 15.9275 59.275 15.7733C58.9915 15.619 58.7578 15.3873 58.6011 15.1051H58.5201V17.6151H57.4931V10.7021H58.4811V11.5591H58.5581C58.717 11.2665 58.9537 11.0235 59.2421 10.8571C59.5305 10.6907 59.8593 10.6073 60.1921 10.6161C61.5161 10.6161 62.3521 11.6451 62.3521 13.2941ZM61.2961 13.2941C61.2961 12.1981 60.7761 11.5361 59.9061 11.5361C59.0411 11.5361 58.5011 12.2121 58.5011 13.2981C58.5011 14.3801 59.0411 15.0571 59.9011 15.0571C60.7761 15.0571 61.2961 14.3951 61.2961 13.2941ZM63.7201 17.7491V16.8681C63.8311 16.8821 63.9431 16.8881 64.0551 16.8871C64.2735 16.9029 64.49 16.8379 64.6636 16.7044C64.8371 16.5709 64.9554 16.3782 64.9961 16.1631L65.0731 15.9101L63.1901 10.7011H64.3081L65.6121 14.8221H65.6941L66.9941 10.7011H68.0831L66.1431 16.1041C65.6981 17.3671 65.2061 17.7721 64.1451 17.7721C64.0601 17.7721 63.8151 17.7631 63.7201 17.7491ZM68.8831 14.4181H69.9051C70.0051 14.8761 70.4351 15.1141 71.0371 15.1141C71.7211 15.1141 72.1411 14.8141 72.1411 14.3471C72.1411 13.8471 71.7641 13.6071 71.0371 13.6071H70.2581V12.8121H71.0241C71.6441 12.8121 71.9601 12.5741 71.9601 12.1411C71.9601 11.7591 71.6551 11.4691 71.0241 11.4691C70.4491 11.4691 70.0291 11.7121 69.9631 12.1211H68.9731C69.0491 11.6504 69.306 11.2281 69.689 10.9442C70.0719 10.6602 70.5507 10.5371 71.0231 10.6011C72.2601 10.6011 72.9681 11.1591 72.9681 12.0361C72.974 12.2806 72.8955 12.5197 72.7458 12.7132C72.5961 12.9066 72.3843 13.0425 72.1461 13.0981V13.1791C72.4294 13.2155 72.6895 13.3545 72.8773 13.5697C73.065 13.7849 73.1674 14.0615 73.1651 14.3471C73.1651 15.3331 72.3231 15.9861 71.0371 15.9861C69.9011 15.9861 68.9771 15.4661 68.8831 14.4181ZM74.6441 15.8911V10.7011H75.6611V14.2711H75.7431L78.1411 10.7011H79.1591V15.8911H78.1401V12.3031H78.0631L75.6611 15.8911H74.6441ZM84.7661 11.5641H83.1281V15.8911H82.1001V11.5641H80.4601V10.7011H84.7661V11.5641ZM90.2991 14.4901C90.1589 14.9651 89.8561 15.3757 89.4436 15.65C89.0312 15.9242 88.5354 16.0446 88.0431 15.9901C87.5271 16.0035 87.0208 15.8479 86.6015 15.547C86.1821 15.246 85.8726 14.8162 85.7201 14.3231C85.62 13.9963 85.5923 13.6516 85.6391 13.3131C85.5933 12.973 85.6214 12.627 85.7215 12.2988C85.8216 11.9706 85.9913 11.6678 86.2191 11.4111C86.4468 11.1536 86.7271 10.9481 87.0411 10.8083C87.3551 10.6686 87.6954 10.5979 88.0391 10.6011C89.4861 10.6011 90.3611 11.5881 90.3611 13.2171V13.5751H86.6861V13.6321C86.6611 13.9195 86.7278 14.2074 86.8765 14.4546C87.0253 14.7018 87.2485 14.8956 87.5141 15.0081C87.6901 15.0831 87.8801 15.1211 88.0721 15.1181C88.3173 15.1473 88.5656 15.1032 88.7857 14.9914C89.0059 14.8797 89.188 14.7052 89.3091 14.4901H90.2991ZM86.6861 12.8171H89.3131C89.3263 12.6427 89.3028 12.4674 89.244 12.3026C89.1852 12.1378 89.0925 11.9873 88.9719 11.8606C88.8512 11.7339 88.7053 11.6339 88.5436 11.5672C88.3819 11.5005 88.208 11.4684 88.0331 11.4731C87.7659 11.4697 87.5038 11.5468 87.2809 11.6943C87.058 11.8417 86.8845 12.0528 86.7831 12.3001C86.7171 12.4641 86.6831 12.6401 86.6861 12.8171ZM94.6521 10.7011H97.0001C98.0171 10.7011 98.6151 11.2161 98.6151 12.0211C98.6169 12.2771 98.5303 12.5259 98.37 12.7256C98.2097 12.9252 97.9855 13.0635 97.7351 13.1171V13.1981C98.0385 13.2175 98.3229 13.3524 98.5299 13.575C98.7369 13.7977 98.8508 14.0911 98.8481 14.3951C98.8481 15.3001 98.1651 15.8911 97.0231 15.8911H94.6531L94.6521 10.7011ZM95.6701 11.4881V12.8311H96.6881C97.3081 12.8311 97.6061 12.5931 97.6061 12.1541C97.6061 11.7501 97.3471 11.4881 96.8021 11.4881H95.6701ZM95.6701 13.5841V15.1041H96.8881C97.4951 15.1041 97.8201 14.8371 97.8201 14.3471C97.8201 13.8271 97.4521 13.5841 96.7601 13.5841H95.6701Z" fill="black"/>
</g>
<defs>
<clipPath id="clip0_2084_79053">
<rect width="137" height="44" fill="white" transform="translate(0.5)"/>
</clipPath>
</defs>
</svg>
