<svg width="10" height="20" viewBox="0 0 10 20" fill="none" xmlns="http://www.w3.org/2000/svg">
<path d="M8.74967 5.00004V14.5834C8.74967 16.425 7.25801 17.9167 5.41634 17.9167C3.57467 17.9167 2.08301 16.425 2.08301 14.5834V4.16671C2.08301 3.01671 3.01634 2.08337 4.16634 2.08337C5.31634 2.08337 6.24967 3.01671 6.24967 4.16671V12.9167C6.24967 13.375 5.87467 13.75 5.41634 13.75C4.95801 13.75 4.58301 13.375 4.58301 12.9167V5.00004H3.33301V12.9167C3.33301 14.0667 4.26634 15 5.41634 15C6.56634 15 7.49967 14.0667 7.49967 12.9167V4.16671C7.49967 2.32504 6.00801 0.833374 4.16634 0.833374C2.32467 0.833374 0.833008 2.32504 0.833008 4.16671V14.5834C0.833008 17.1167 2.88301 19.1667 5.41634 19.1667C7.94967 19.1667 9.99967 17.1167 9.99967 14.5834V5.00004H8.74967Z" fill="#182F35"/>
</svg>
