<svg width="16" height="16" viewBox="0 0 16 16" fill="none" xmlns="http://www.w3.org/2000/svg">
<g clip-path="url(#clip0_71_10048)">
<path d="M4.66699 12.0002C3.93366 12.0002 3.34033 12.6002 3.34033 13.3335C3.34033 14.0668 3.93366 14.6668 4.66699 14.6668C5.40033 14.6668 6.00033 14.0668 6.00033 13.3335C6.00033 12.6002 5.40033 12.0002 4.66699 12.0002ZM11.3337 12.0002C10.6003 12.0002 10.007 12.6002 10.007 13.3335C10.007 14.0668 10.6003 14.6668 11.3337 14.6668C12.067 14.6668 12.667 14.0668 12.667 13.3335C12.667 12.6002 12.067 12.0002 11.3337 12.0002ZM4.78033 9.8335L4.80032 9.7535L5.40033 8.66683H10.367C10.867 8.66683 11.307 8.3935 11.5337 7.98016L14.107 3.30683L12.947 2.66683L12.207 4.00016L10.367 7.3335H5.68699L5.60033 7.1535L4.10699 4.00016L3.47366 2.66683L2.84699 1.3335H0.666992V2.66683H2.00033L4.40033 7.72683L3.50033 9.36016C3.39366 9.54683 3.33366 9.76683 3.33366 10.0002C3.33366 10.7335 3.93366 11.3335 4.66699 11.3335H12.667V10.0002H4.94699C4.86033 10.0002 4.78033 9.92683 4.78033 9.8335Z" fill="white"/>
<path d="M12.207 4.00016L12.947 2.66683H3.47366L4.10699 4.00016H12.207Z" fill="white"/>
</g>
<defs>
<clipPath id="clip0_71_10048">
<rect width="16" height="16" fill="white"/>
</clipPath>
</defs>
</svg>
