<svg width="231" height="225" viewBox="0 0 231 225" fill="none" xmlns="http://www.w3.org/2000/svg">
<rect width="231" height="225" fill="#F3F3F3"/>
<path d="M119.422 99.6667L122.808 103.333H130.3V125.333H100.7V103.333H108.193L111.578 99.6667H119.422ZM121.05 96H109.95L106.564 99.6667H100.7C98.665 99.6667 97 101.317 97 103.333V125.333C97 127.35 98.665 129 100.7 129H130.3C132.335 129 134 127.35 134 125.333V103.333C134 101.317 132.335 99.6667 130.3 99.6667H124.435L121.05 96ZM115.5 108.833C118.552 108.833 121.05 111.308 121.05 114.333C121.05 117.358 118.552 119.833 115.5 119.833C112.447 119.833 109.95 117.358 109.95 114.333C109.95 111.308 112.447 108.833 115.5 108.833ZM115.5 105.167C110.394 105.167 106.25 109.273 106.25 114.333C106.25 119.393 110.394 123.5 115.5 123.5C120.606 123.5 124.75 119.393 124.75 114.333C124.75 109.273 120.606 105.167 115.5 105.167Z" fill="#808080" fill-opacity="0.55"/>
</svg>
