<svg width="40" height="40" viewBox="0 0 40 40" fill="#182F35" xmlns="http://www.w3.org/2000/svg">
<g clip-path="url(#clip0_1614_8338)">
<path d="M14.9987 18.3333C14.082 18.3333 13.332 19.0833 13.332 20C13.332 20.9166 14.082 21.6666 14.9987 21.6666C15.9154 21.6666 16.6654 20.9166 16.6654 20C16.6654 19.0833 15.9154 18.3333 14.9987 18.3333ZM24.9987 18.3333C24.082 18.3333 23.332 19.0833 23.332 20C23.332 20.9166 24.082 21.6666 24.9987 21.6666C25.9154 21.6666 26.6654 20.9166 26.6654 20C26.6654 19.0833 25.9154 18.3333 24.9987 18.3333ZM19.9987 18.3333C19.082 18.3333 18.332 19.0833 18.332 20C18.332 20.9166 19.082 21.6666 19.9987 21.6666C20.9154 21.6666 21.6654 20.9166 21.6654 20C21.6654 19.0833 20.9154 18.3333 19.9987 18.3333Z" />
</g>
<defs>
<clipPath id="clip0_1614_8338">
<rect x="10" y="10" width="20" height="20" rx="4"/>
</clipPath>
</defs>
</svg>
