<svg width="12" height="12" viewBox="0 0 12 12" fill="none" xmlns="http://www.w3.org/2000/svg">
<path d="M10.898 7.52297L8.64797 9.77297C8.5423 9.87864 8.39897 9.93801 8.24953 9.93801C8.10009 9.93801 7.95677 9.87864 7.85109 9.77297C7.74542 9.6673 7.68606 9.52397 7.68606 9.37453C7.68606 9.22509 7.74542 9.08177 7.85109 8.97609L9.14062 7.6875H6C4.6578 7.68601 3.371 7.15216 2.42192 6.20308C1.47284 5.254 0.938989 3.9672 0.9375 2.625C0.9375 2.47582 0.996763 2.33274 1.10225 2.22725C1.20774 2.12176 1.35082 2.0625 1.5 2.0625C1.64918 2.0625 1.79226 2.12176 1.89775 2.22725C2.00324 2.33274 2.0625 2.47582 2.0625 2.625C2.06362 3.66895 2.47882 4.66982 3.217 5.408C3.95518 6.14618 4.95605 6.56138 6 6.5625H9.14062L7.85062 5.27297C7.74495 5.1673 7.68559 5.02397 7.68559 4.87453C7.68559 4.72509 7.74495 4.58177 7.85062 4.47609C7.9563 4.37042 8.09962 4.31106 8.24906 4.31106C8.3985 4.31106 8.54183 4.37042 8.6475 4.47609L10.8975 6.72609C10.95 6.77832 10.9916 6.84039 11.02 6.90875C11.0485 6.97711 11.0631 7.0504 11.0632 7.12443C11.0632 7.19847 11.0486 7.27178 11.0203 7.34017C10.9919 7.40856 10.9504 7.47068 10.898 7.52297Z" fill="#737373"/>
</svg>
