<svg width="150" height="44" viewBox="0 0 150 44" fill="none" xmlns="http://www.w3.org/2000/svg">
<g clip-path="url(#clip0_2084_79057)">
<path d="M143.5 0H6C4.54131 0 3.14236 0.579463 2.11091 1.61091C1.07946 2.64236 0.5 4.04131 0.5 5.5L0.5 38.5C0.5 39.9587 1.07946 41.3576 2.11091 42.3891C3.14236 43.4205 4.54131 44 6 44H143.5C144.959 44 146.358 43.4205 147.389 42.3891C148.421 41.3576 149 39.9587 149 38.5V5.5C149 4.04131 148.421 2.64236 147.389 1.61091C146.358 0.579463 144.959 0 143.5 0Z" fill="white"/>
<path d="M75.454 23.9245C74.5274 23.9267 73.6223 24.2036 72.8531 24.7202C72.0839 25.2367 71.4851 25.9698 71.1325 26.8266C70.7799 27.6834 70.6893 28.6256 70.8721 29.534C71.0549 30.4423 71.503 31.276 72.1596 31.9297C72.8163 32.5835 73.652 33.0278 74.5612 33.2065C75.4703 33.3853 76.4121 33.2904 77.2673 32.934C78.1226 32.5775 78.8529 31.9755 79.366 31.204C79.8791 30.4324 80.1519 29.5261 80.15 28.5995C80.1592 27.9812 80.0439 27.3673 79.8108 26.7945C79.5778 26.2217 79.2318 25.7016 78.7935 25.2654C78.3552 24.8291 77.8335 24.4856 77.2596 24.2552C76.6857 24.0249 76.0723 23.9124 75.454 23.9245ZM75.454 31.4375C74.8859 31.4773 74.319 31.3452 73.827 31.0585C73.335 30.7718 72.9407 30.3437 72.6952 29.8298C72.4497 29.316 72.3645 28.7402 72.4506 28.1773C72.5367 27.6144 72.7902 27.0904 73.178 26.6735C73.5659 26.2565 74.0702 25.9659 74.6254 25.8394C75.1806 25.7129 75.7611 25.7563 76.2913 25.964C76.8215 26.1718 77.2769 26.5342 77.5984 27.0042C77.9199 27.4742 78.0926 28.0301 78.094 28.5995C78.1116 28.9603 78.0568 29.321 77.9328 29.6603C77.8088 29.9995 77.6182 30.3106 77.3722 30.575C77.1262 30.8395 76.8297 31.0521 76.5003 31.2002C76.1708 31.3483 75.8151 31.429 75.454 31.4375ZM65.202 23.9245C64.2755 23.9269 63.3704 24.204 62.6014 24.7206C61.8323 25.2373 61.2337 25.9704 60.8812 26.8273C60.5288 27.6842 60.4383 28.6263 60.6212 29.5346C60.8041 30.4428 61.2523 31.2765 61.909 31.9301C62.5657 32.5837 63.4014 33.0279 64.3105 33.2066C65.2197 33.3853 66.1613 33.2904 67.0165 32.9339C67.8717 32.5774 68.602 31.9754 69.1151 31.2039C69.6282 30.4324 69.9009 29.5261 69.899 28.5995C69.9082 27.9812 69.7929 27.3673 69.5598 26.7945C69.3268 26.2217 68.9808 25.7016 68.5425 25.2654C68.1042 24.8291 67.5825 24.4856 67.0086 24.2552C66.4347 24.0249 65.8203 23.9124 65.202 23.9245ZM65.202 31.4375C64.6339 31.4773 64.067 31.3452 63.575 31.0585C63.083 30.7718 62.6887 30.3437 62.4432 29.8298C62.1977 29.316 62.1125 28.7402 62.1986 28.1773C62.2847 27.6144 62.5382 27.0904 62.926 26.6735C63.3139 26.2565 63.8182 25.9659 64.3734 25.8394C64.9286 25.7129 65.5091 25.7563 66.0393 25.964C66.5695 26.1718 67.0249 26.5342 67.3464 27.0042C67.6679 27.4742 67.8406 28.0301 67.842 28.5995C67.8596 28.9603 67.8048 29.321 67.6808 29.6603C67.5568 29.9995 67.3662 30.3106 67.1202 30.575C66.8742 30.8395 66.5777 31.0521 66.2483 31.2002C65.9188 31.3483 65.5631 31.429 65.202 31.4375ZM53.014 25.3655V27.3455H57.766C57.6915 28.2781 57.3038 29.1581 56.666 29.8425C56.1893 30.3283 55.616 30.7085 54.9831 30.9586C54.3502 31.2087 53.6719 31.3232 52.992 31.2945C51.5916 31.2945 50.2486 30.7383 49.2584 29.7481C48.2683 28.7579 47.712 27.4149 47.712 26.0145C47.712 24.6142 48.2683 23.2712 49.2584 22.281C50.2486 21.2908 51.5916 20.7345 52.992 20.7345C54.3345 20.7146 55.6308 21.2244 56.6 22.1535L57.997 20.7565C57.3414 20.1081 56.5629 19.597 55.7073 19.2533C54.8516 18.9095 53.936 18.7399 53.014 18.7545C52.034 18.7131 51.0558 18.8703 50.1381 19.2167C49.2205 19.5632 48.3824 20.0917 47.6743 20.7704C46.9663 21.4492 46.4028 22.2641 46.0179 23.1663C45.633 24.0685 45.4346 25.0392 45.4346 26.02C45.4346 27.0009 45.633 27.9716 46.0179 28.8738C46.4028 29.776 46.9663 30.5909 47.6743 31.2697C48.3824 31.9484 49.2205 32.4769 50.1381 32.8234C51.0558 33.1698 52.034 33.327 53.014 33.2855C53.9548 33.323 54.8928 33.161 55.7666 32.8103C56.6404 32.4596 57.4301 31.928 58.084 31.2505C59.2395 29.9818 59.8553 28.3128 59.801 26.5975C59.8046 26.1847 59.7711 25.7724 59.701 25.3655H53.014ZM102.855 26.9055C102.568 26.0617 102.031 25.3249 101.316 24.7926C100.601 24.2603 99.7417 23.9576 98.851 23.9245C98.2493 23.9234 97.6537 24.0456 97.1011 24.2837C96.5485 24.5219 96.0507 24.8708 95.6383 25.3089C95.2259 25.7471 94.9078 26.2652 94.7035 26.8312C94.4993 27.3972 94.4134 27.999 94.451 28.5995C94.4416 29.6037 94.7573 30.5839 95.3509 31.3938C95.9445 32.2038 96.7843 32.7999 97.7447 33.0932C98.705 33.3865 99.7346 33.3613 100.679 33.0212C101.624 32.6812 102.434 32.0446 102.987 31.2065L101.392 30.1065C101.154 30.5031 100.817 30.8305 100.413 31.0563C100.01 31.282 99.5543 31.3983 99.092 31.3935C98.6153 31.4132 98.1439 31.2881 97.7397 31.0349C97.3354 30.7816 97.0173 30.412 96.827 29.9745L103.086 27.3895L102.855 26.9055ZM96.475 28.4675C96.4527 28.1259 96.4988 27.7832 96.6106 27.4595C96.7224 27.1359 96.8976 26.8378 97.1261 26.5827C97.3545 26.3277 97.6315 26.1207 97.9409 25.9741C98.2503 25.8274 98.5859 25.7439 98.928 25.7285C99.2824 25.7069 99.6353 25.7904 99.9425 25.9684C100.25 26.1465 100.498 26.4113 100.655 26.7295L96.475 28.4675ZM91.393 32.9995H93.45V19.2495H91.393V32.9995ZM88.027 24.9695H87.95C87.6376 24.6296 87.2562 24.3604 86.8311 24.1802C86.4061 23.9999 85.9475 23.9128 85.486 23.9245C84.2839 23.9828 83.1503 24.5014 82.3201 25.3728C81.49 26.2442 81.0269 27.4015 81.0269 28.605C81.0269 29.8086 81.49 30.9659 82.3201 31.8373C83.1503 32.7087 84.2839 33.2273 85.486 33.2855C85.9523 33.2949 86.415 33.2012 86.8409 33.011C87.2669 32.8209 87.6456 32.539 87.95 32.1855H88.027V32.8565C88.027 34.6495 87.07 35.6065 85.53 35.6065C85.0155 35.5952 84.5161 35.4313 84.095 35.1356C83.6739 34.8398 83.3502 34.4256 83.165 33.9455L81.383 34.6825C81.7124 35.51 82.2853 36.218 83.0257 36.713C83.7662 37.2079 84.6394 37.4665 85.53 37.4545C87.939 37.4545 89.93 36.0355 89.93 32.5815V24.1995H88.027V24.9695ZM85.662 31.4375C84.9384 31.3967 84.2578 31.0805 83.7599 30.5538C83.2621 30.0271 82.9847 29.3298 82.9847 28.605C82.9847 27.8803 83.2621 27.183 83.7599 26.6563C84.2578 26.1296 84.9384 25.8134 85.662 25.7725C86.0142 25.7878 86.3598 25.8737 86.6782 26.0252C86.9966 26.1766 87.2813 26.3906 87.5153 26.6544C87.7492 26.9181 87.9278 27.2263 88.0403 27.5604C88.1527 27.8946 88.1968 28.248 88.17 28.5995C88.2 28.9523 88.1581 29.3075 88.047 29.6436C87.9358 29.9797 87.7576 30.2898 87.5231 30.5551C87.2887 30.8204 87.0029 31.0354 86.683 31.1871C86.3631 31.3387 86.0157 31.4239 85.662 31.4375ZM112.49 19.2495H107.562V32.9995H109.619V27.7855H112.49C113.075 27.8256 113.662 27.745 114.215 27.5486C114.767 27.3523 115.274 27.0444 115.702 26.6442C116.131 26.244 116.472 25.7599 116.706 25.222C116.94 24.6841 117.06 24.104 117.06 23.5175C117.06 22.9311 116.94 22.351 116.706 21.8131C116.472 21.2752 116.131 20.7911 115.702 20.3909C115.274 19.9907 114.767 19.6828 114.215 19.4865C113.662 19.2901 113.075 19.2095 112.49 19.2495ZM112.49 25.8495H109.619V21.1635H112.534C113 21.1628 113.455 21.3004 113.843 21.5589C114.23 21.8174 114.533 22.1852 114.711 22.6156C114.889 23.046 114.935 23.5197 114.844 23.9765C114.753 24.4333 114.528 24.8527 114.198 25.1815C113.757 25.6235 113.158 25.8715 112.534 25.8715L112.49 25.8495ZM125.184 23.8805C124.435 23.8346 123.689 24.0091 123.038 24.3825C122.387 24.7559 121.86 25.3118 121.521 25.9815L123.336 26.7405C123.519 26.4095 123.794 26.1388 124.128 25.9611C124.462 25.7834 124.84 25.7065 125.217 25.7395C125.478 25.7088 125.743 25.7304 125.996 25.8031C126.248 25.8759 126.484 25.9983 126.689 26.1632C126.894 26.3281 127.064 26.5322 127.189 26.7635C127.314 26.9949 127.391 27.2488 127.417 27.5105V27.6425C126.755 27.2949 126.019 27.1137 125.272 27.1145C123.314 27.1145 121.312 28.2145 121.312 30.2165C121.331 30.6422 121.435 31.0597 121.619 31.444C121.803 31.8284 122.062 32.1717 122.382 32.4535C122.701 32.7359 123.073 32.9512 123.477 33.0865C123.881 33.2219 124.308 33.2746 124.733 33.2415C125.249 33.2704 125.764 33.1613 126.224 32.9255C126.684 32.6896 127.073 32.3355 127.351 31.8995H127.417V32.9995H129.397V27.7085C129.397 25.2995 127.571 23.9025 125.228 23.9025L125.184 23.8805ZM124.931 31.4155C124.26 31.4155 123.325 31.0745 123.325 30.2495C123.325 29.1495 124.491 28.7755 125.525 28.7755C126.178 28.7595 126.824 28.9191 127.395 29.2375C127.326 29.8349 127.043 30.387 126.598 30.7915C126.153 31.196 125.576 31.4256 124.975 31.4375L124.931 31.4155ZM136.613 24.1995L134.259 30.1615H134.193L131.751 24.1995H129.551L133.214 32.5375L131.124 37.1685H133.324L138.901 24.1995H136.613ZM118.133 32.9995H120.179V19.2495H118.133V32.9995Z" fill="black"/>
<path d="M11.9837 8.2938C11.6331 8.72726 11.4601 9.27768 11.4997 9.8338V34.1658C11.4623 34.7272 11.6481 35.2807 12.0167 35.7058L12.0937 35.7938L25.6897 22.1648V21.8348L12.0607 8.2168L11.9837 8.2938Z" fill="url(#paint0_linear_2084_79057)"/>
<path d="M30.2004 26.709L25.6904 22.166V21.836L30.2004 17.293L30.2994 17.359L35.6994 20.417C37.2394 21.286 37.2394 22.716 35.6994 23.596L30.3214 26.654L30.2004 26.709Z" fill="url(#paint1_linear_2084_79057)"/>
<path d="M30.3324 26.642L25.6904 22L11.9844 35.706C12.2952 35.9827 12.6931 36.1419 13.109 36.1559C13.5249 36.17 13.9326 36.038 14.2614 35.783L30.3324 26.642Z" fill="url(#paint2_linear_2084_79057)"/>
<path d="M30.3324 17.3581L14.2604 8.22811C13.9337 7.96952 13.5263 7.83438 13.1099 7.84645C12.6934 7.85852 12.2945 8.01703 11.9834 8.29411L25.6904 22.0001L30.3324 17.3581Z" fill="url(#paint3_linear_2084_79057)"/>
<path opacity="0.2" d="M30.2004 26.543L14.2604 35.618C13.9435 35.8571 13.5574 35.9865 13.1604 35.9865C12.7634 35.9865 12.3772 35.8571 12.0604 35.618L11.9844 35.695L12.0614 35.783C12.3782 36.0221 12.7644 36.1515 13.1614 36.1515C13.5584 36.1515 13.9445 36.0221 14.2614 35.783L30.3314 26.642L30.2004 26.543Z" fill="white"/>
<path opacity="0.12" d="M11.9845 35.552C11.6311 35.1157 11.458 34.5608 11.5005 34.001V34.166C11.4629 34.7274 11.6487 35.281 12.0175 35.706L12.0945 35.629L11.9845 35.552ZM35.7005 23.43L30.2005 26.543L30.3005 26.642L35.7005 23.584C36.0193 23.4492 36.2958 23.2309 36.501 22.9522C36.7062 22.6734 36.8325 22.3445 36.8665 22C36.7977 22.313 36.6563 22.6055 36.4538 22.8539C36.2513 23.1023 35.9932 23.2996 35.7005 23.43Z" fill="white"/>
<path opacity="0.25" d="M14.261 8.38188L35.7 20.5699C35.9927 20.7003 36.2507 20.8977 36.4533 21.1461C36.6558 21.3944 36.7972 21.6869 36.866 21.9999C36.832 21.6554 36.7058 21.3265 36.5006 21.0477C36.2954 20.769 36.0188 20.5507 35.7 20.4159L14.261 8.22788C12.732 7.34788 11.5 8.07388 11.5 9.83388V9.99988C11.5 8.23988 12.732 7.51388 14.261 8.38288V8.38188Z" fill="black"/>
<path d="M46.8196 15.6971H46.0176V13.4971H46.6996C47.0064 13.164 47.2372 12.7681 47.3758 12.3369C47.5145 11.9058 47.5577 11.4496 47.5026 11.0001V7.70008H51.9026V13.4861H52.6396V15.6861H51.8256V14.3001H46.8196V15.6971ZM48.3496 11.0001C48.3987 11.8837 48.1801 12.7616 47.7226 13.5191H51.0226V8.51408H48.3496V11.0001ZM59.2506 13.4421C58.9328 13.7599 58.5555 14.0121 58.1403 14.1841C57.7251 14.3561 57.28 14.4446 56.8306 14.4446C56.3811 14.4446 55.9361 14.3561 55.5209 14.1841C55.1056 14.0121 54.7283 13.7599 54.4106 13.4421C54.0947 13.12 53.8464 12.7381 53.6802 12.3187C53.514 11.8994 53.4332 11.4511 53.4426 11.0001C53.4317 10.5498 53.5107 10.102 53.675 9.68265C53.8394 9.26334 54.0857 8.88102 54.3996 8.55808C54.7172 8.23999 55.0944 7.98765 55.5097 7.81548C55.9249 7.64331 56.3701 7.55469 56.8196 7.55469C57.2691 7.55469 57.7142 7.64331 58.1295 7.81548C58.5447 7.98765 58.9219 8.23999 59.2396 8.55808C59.5593 8.87836 59.8117 9.25947 59.9817 9.67889C60.1517 10.0983 60.236 10.5475 60.2296 11.0001C60.2428 11.4525 60.1626 11.9028 59.9942 12.323C59.8258 12.7431 59.5726 13.124 59.2506 13.4421ZM55.0376 12.8921C55.2694 13.1328 55.5481 13.3234 55.8565 13.4521C56.1649 13.5807 56.4964 13.6447 56.8306 13.6401C57.165 13.6467 57.4971 13.5836 57.8058 13.4548C58.1145 13.3261 58.393 13.1344 58.6236 12.8921C58.8694 12.6439 59.0616 12.348 59.1883 12.0225C59.3151 11.6971 59.3737 11.3491 59.3606 11.0001C59.3739 10.6511 59.3153 10.303 59.1885 9.97756C59.0617 9.6521 58.8694 9.35616 58.6236 9.10808C58.393 8.8658 58.1145 8.67418 57.8058 8.5454C57.4971 8.41662 57.165 8.35351 56.8306 8.36008C56.4964 8.35544 56.1649 8.41944 55.8565 8.5481C55.5481 8.67676 55.2694 8.86735 55.0376 9.10808C54.7954 9.35828 54.6062 9.65485 54.4814 9.97997C54.3567 10.3051 54.2989 10.6521 54.3116 11.0001C54.2989 11.3481 54.3567 11.6951 54.4814 12.0202C54.6062 12.3453 54.7954 12.6419 55.0376 12.8921ZM64.4976 14.4431C64.0434 14.4524 63.592 14.3696 63.1707 14.1997C62.7494 14.0299 62.3668 13.7764 62.0461 13.4547C61.7254 13.1329 61.4732 12.7496 61.3047 12.3277C61.1361 11.9059 61.0548 11.4542 61.0656 11.0001C61.0565 10.54 61.1439 10.0831 61.3219 9.6587C61.5 9.23435 61.7649 8.85195 62.0996 8.53608C62.4177 8.21415 62.7987 7.96112 63.2188 7.7927C63.6389 7.62428 64.0892 7.54407 64.5416 7.55708C65.0021 7.54405 65.4595 7.63637 65.8789 7.82701C66.2983 8.01765 66.6686 8.30155 66.9616 8.65708L66.3786 9.22908C66.1625 8.95124 65.8828 8.72931 65.5632 8.58192C65.2435 8.43454 64.8932 8.36601 64.5416 8.38208C64.203 8.37344 63.8662 8.43439 63.5521 8.56116C63.238 8.68794 62.9533 8.87783 62.7156 9.11908C62.4629 9.36191 62.2632 9.65436 62.129 9.97806C61.9948 10.3018 61.9289 10.6497 61.9356 11.0001C61.9132 11.5221 62.0522 12.0383 62.3336 12.4785C62.6151 12.9186 63.0254 13.2614 63.5086 13.4601C63.8226 13.5881 64.1586 13.6491 64.4986 13.6401C64.8821 13.6383 65.2605 13.5516 65.6065 13.3861C65.9525 13.2207 66.2575 12.9806 66.4996 12.6831L67.0936 13.2661C66.7923 13.6272 66.4172 13.9198 65.9936 14.1241C65.5256 14.3431 65.0136 14.4521 64.4976 14.4431ZM70.5486 14.3001H69.6996V8.51408H67.8526V7.70008H72.3836V8.51408H70.5466V14.3001H70.5486ZM78.2146 7.70008L75.7176 13.2661C75.6569 13.4891 75.5484 13.6964 75.3997 13.8734C75.2511 14.0504 75.0657 14.193 74.8565 14.2914C74.6472 14.3897 74.4192 14.4414 74.188 14.4429C73.9568 14.4444 73.7281 14.3957 73.5176 14.3001L73.7376 13.5191C73.8722 13.5947 74.0232 13.6362 74.1776 13.6401C74.3404 13.6482 74.5017 13.606 74.6396 13.5191C74.7736 13.4081 74.8756 13.2641 74.9366 13.1011L75.1786 12.5731L72.9566 7.70008H73.9576L75.5856 11.4841L77.2136 7.70008H78.2146ZM79.1716 14.3001V7.70008H83.9456V14.3001H83.0986V8.51408H80.0186V14.3001H79.1716ZM85.4526 14.3001V7.70008H86.2996V10.5271H89.5996V7.70008H90.4576V14.3001H89.5996V11.3191H86.2996V14.3001H85.4526ZM97.3656 13.4421C96.9672 13.8406 96.4766 14.1345 95.9372 14.2977C95.3979 14.4609 94.8266 14.4883 94.2741 14.3775C93.7216 14.2666 93.2051 14.021 92.7704 13.6624C92.3357 13.3038 91.9964 12.8434 91.7826 12.3221C91.6141 11.9022 91.5338 11.4523 91.5466 11.0001C91.5337 10.5476 91.6141 10.0973 91.7827 9.67718C91.9513 9.25707 92.2045 8.87614 92.5266 8.55808C92.8433 8.2406 93.2196 7.98872 93.6338 7.81686C94.048 7.64501 94.4921 7.55654 94.9406 7.55654C95.389 7.55654 95.8331 7.64501 96.2473 7.81686C96.6616 7.98872 97.0378 8.2406 97.3546 8.55808C97.6767 8.87614 97.9299 9.25707 98.0985 9.67718C98.2671 10.0973 98.3475 10.5476 98.3346 11.0001C98.3489 11.4518 98.2703 11.9016 98.1036 12.3217C97.9369 12.7417 97.6857 13.1231 97.3656 13.4421ZM93.1526 12.8921C93.3831 13.1345 93.6615 13.3262 93.9703 13.455C94.279 13.5838 94.6111 13.6468 94.9456 13.6401C95.2797 13.6448 95.6113 13.5809 95.9197 13.4522C96.2282 13.3236 96.5069 13.1329 96.7386 12.8921C96.9807 12.6418 97.1699 12.3453 97.2946 12.0202C97.4194 11.695 97.4772 11.3481 97.4646 11.0001C97.4772 10.6521 97.4195 10.3051 97.2947 9.97997C97.1699 9.65485 96.9808 9.35828 96.7386 9.10808C96.5068 8.86735 96.2281 8.67676 95.9197 8.5481C95.6113 8.41944 95.2797 8.35544 94.9456 8.36008C94.6112 8.35351 94.2791 8.41662 93.9704 8.5454C93.6617 8.67418 93.3832 8.8658 93.1526 9.10808C92.9068 9.35623 92.7146 9.65218 92.5878 9.97762C92.461 10.3031 92.4024 10.6511 92.4156 11.0001C92.4023 11.3491 92.4609 11.6971 92.5876 12.0226C92.7144 12.3481 92.9067 12.644 93.1526 12.8921ZM101.799 14.3001V7.70008H104.186C104.68 7.69511 105.159 7.87563 105.528 8.20608C105.711 8.36555 105.858 8.5635 105.957 8.78591C106.056 9.00832 106.104 9.24974 106.1 9.49308C106.102 9.78908 106.018 10.0801 105.858 10.3291C105.695 10.5655 105.471 10.7523 105.209 10.8691C105.525 10.9741 105.801 11.1731 106.001 11.4401C106.211 11.7061 106.323 12.0361 106.32 12.3751C106.325 12.6286 106.274 12.8802 106.172 13.1121C106.069 13.344 105.917 13.5505 105.726 13.7171C105.344 14.0726 104.839 14.2662 104.318 14.2571L101.799 14.3001ZM102.646 10.5271H104.186C104.33 10.5356 104.474 10.5113 104.607 10.456C104.741 10.4008 104.86 10.316 104.956 10.2081C105.142 10.025 105.248 9.77612 105.253 9.51508C105.263 9.25308 105.173 8.99708 105 8.80008C104.907 8.69799 104.793 8.6175 104.665 8.56429C104.538 8.51107 104.4 8.48642 104.263 8.49208H102.646V10.5271ZM102.646 13.4871H104.351C104.501 13.4932 104.652 13.4658 104.791 13.4066C104.93 13.3474 105.054 13.2581 105.154 13.1451C105.344 12.9422 105.45 12.675 105.451 12.3971C105.446 12.1826 105.378 11.9742 105.256 11.7975C105.135 11.6207 104.964 11.4833 104.766 11.4021C104.624 11.3433 104.471 11.3151 104.318 11.3191H102.646V13.4861V13.4871Z" fill="black" stroke="black" stroke-width="0.2" stroke-miterlimit="10"/>
</g>
<defs>
<linearGradient id="paint0_linear_2084_79057" x1="24.4797" y1="9.5808" x2="6.02171" y2="28.0388" gradientUnits="userSpaceOnUse">
<stop stop-color="#00A0FF"/>
<stop offset="0.01" stop-color="#00A1FF"/>
<stop offset="0.26" stop-color="#00BEFF"/>
<stop offset="0.51" stop-color="#00D2FF"/>
<stop offset="0.76" stop-color="#00DFFF"/>
<stop offset="1" stop-color="#00E3FF"/>
</linearGradient>
<linearGradient id="paint1_linear_2084_79057" x1="37.7134" y1="22.001" x2="11.1044" y2="22.001" gradientUnits="userSpaceOnUse">
<stop stop-color="#FFE000"/>
<stop offset="0.41" stop-color="#FFBD00"/>
<stop offset="0.78" stop-color="#FFA500"/>
<stop offset="1" stop-color="#FF9C00"/>
</linearGradient>
<linearGradient id="paint2_linear_2084_79057" x1="27.8134" y1="24.53" x2="2.77737" y2="49.555" gradientUnits="userSpaceOnUse">
<stop stop-color="#FF3A44"/>
<stop offset="1" stop-color="#C31162"/>
</linearGradient>
<linearGradient id="paint3_linear_2084_79057" x1="8.5304" y1="0.198112" x2="19.7064" y2="11.3741" gradientUnits="userSpaceOnUse">
<stop stop-color="#32A071"/>
<stop offset="0.07" stop-color="#2DA771"/>
<stop offset="0.48" stop-color="#15CF74"/>
<stop offset="0.8" stop-color="#06E775"/>
<stop offset="1" stop-color="#00F076"/>
</linearGradient>
<clipPath id="clip0_2084_79057">
<rect width="149" height="44" fill="white" transform="translate(0.5)"/>
</clipPath>
</defs>
</svg>
