<svg width="16" height="16" viewBox="0 0 16 16" fill="#182F35" xmlns="http://www.w3.org/2000/svg">
<g clip-path="url(#clip0_5748_4364)">
<path d="M2.66683 7.99984C2.66683 5.05984 5.06016 2.6665 8.00016 2.6665C10.9402 2.6665 13.3335 5.05984 13.3335 7.99984C13.3335 10.9398 10.9402 13.3332 8.00016 13.3332C5.06016 13.3332 2.66683 10.9398 2.66683 7.99984ZM1.3335 7.99984C1.3335 11.6798 4.32016 14.6665 8.00016 14.6665C11.6802 14.6665 14.6668 11.6798 14.6668 7.99984C14.6668 4.31984 11.6802 1.33317 8.00016 1.33317C4.32016 1.33317 1.3335 4.31984 1.3335 7.99984ZM8.00016 7.33317L5.3335 7.33317L5.3335 8.6665L8.00016 8.6665L8.00016 10.6665L10.6668 7.99984L8.00016 5.33317L8.00016 7.33317Z" />
</g>
<defs>
<clipPath id="clip0_5748_4364">
<rect width="16" height="16" fill="white"/>
</clipPath>
</defs>
</svg>
