<svg width="20" height="20" viewBox="0 0 20 20" fill="none" xmlns="http://www.w3.org/2000/svg">
<g clip-path="url(#clip0_3839_20462)">
<path d="M9.9987 4.99984C13.157 4.99984 15.9737 6.77484 17.3487 9.58317C16.857 10.5998 16.1654 11.4748 15.3404 12.1832L16.5154 13.3582C17.6737 12.3332 18.5904 11.0498 19.1654 9.58317C17.7237 5.92484 14.1654 3.33317 9.9987 3.33317C8.94036 3.33317 7.9237 3.49984 6.96536 3.80817L8.34036 5.18317C8.88203 5.07484 9.43203 4.99984 9.9987 4.99984ZM9.10703 5.94984L10.832 7.67484C11.307 7.88317 11.6904 8.2665 11.8987 8.7415L13.6237 10.4665C13.6904 10.1832 13.7404 9.88317 13.7404 9.57484C13.7487 7.50817 12.0654 5.83317 9.9987 5.83317C9.69036 5.83317 9.3987 5.87484 9.10703 5.94984ZM1.6737 3.22484L3.90703 5.45817C2.5487 6.52484 1.4737 7.9415 0.832031 9.58317C2.2737 13.2415 5.83203 15.8332 9.9987 15.8332C11.2654 15.8332 12.482 15.5915 13.5987 15.1498L16.4487 17.9998L17.6237 16.8248L2.8487 2.0415L1.6737 3.22484ZM7.9237 9.47484L10.0987 11.6498C10.0654 11.6582 10.032 11.6665 9.9987 11.6665C8.8487 11.6665 7.91536 10.7332 7.91536 9.58317C7.91536 9.5415 7.9237 9.5165 7.9237 9.47484ZM5.09036 6.6415L6.5487 8.09984C6.35703 8.55817 6.2487 9.05817 6.2487 9.58317C6.2487 11.6498 7.93203 13.3332 9.9987 13.3332C10.5237 13.3332 11.0237 13.2248 11.4737 13.0332L12.2904 13.8498C11.557 14.0498 10.7904 14.1665 9.9987 14.1665C6.84036 14.1665 4.0237 12.3915 2.6487 9.58317C3.23203 8.3915 4.08203 7.40817 5.09036 6.6415Z" fill="#182F35"/>
</g>
<defs>
<clipPath id="clip0_3839_20462">
<rect width="20" height="20" fill="white"/>
</clipPath>
</defs>
</svg>
