<svg width="32" height="32" viewBox="0 0 32 32" fill="#182F35" xmlns="http://www.w3.org/2000/svg">
<g clip-path="url(#clip0_4851_6956)">
<path d="M15.9998 13.3327C16.7332 13.3327 17.3332 12.7327 17.3332 11.9993C17.3332 11.266 16.7332 10.666 15.9998 10.666C15.2665 10.666 14.6665 11.266 14.6665 11.9993C14.6665 12.7327 15.2665 13.3327 15.9998 13.3327ZM15.9998 14.666C15.2665 14.666 14.6665 15.266 14.6665 15.9993C14.6665 16.7327 15.2665 17.3327 15.9998 17.3327C16.7332 17.3327 17.3332 16.7327 17.3332 15.9993C17.3332 15.266 16.7332 14.666 15.9998 14.666ZM15.9998 18.666C15.2665 18.666 14.6665 19.266 14.6665 19.9993C14.6665 20.7327 15.2665 21.3327 15.9998 21.3327C16.7332 21.3327 17.3332 20.7327 17.3332 19.9993C17.3332 19.266 16.7332 18.666 15.9998 18.666Z" />
</g>
<defs>
<clipPath id="clip0_4851_6956">
<rect x="8" y="8" width="16" height="16" rx="4" fill="white"/>
</clipPath>
</defs>
</svg>
