<svg width="16" height="16" viewBox="0 0 16 16" fill="none" xmlns="http://www.w3.org/2000/svg">
<g clip-path="url(#clip0_1144_35115)">
<path d="M9.99935 7.99935C11.4727 7.99935 12.666 6.80602 12.666 5.33268C12.666 3.85935 11.4727 2.66602 9.99935 2.66602C8.52602 2.66602 7.33268 3.85935 7.33268 5.33268C7.33268 6.80602 8.52602 7.99935 9.99935 7.99935ZM9.99935 3.99935C10.7327 3.99935 11.3327 4.59935 11.3327 5.33268C11.3327 6.06602 10.7327 6.66602 9.99935 6.66602C9.26602 6.66602 8.66602 6.06602 8.66602 5.33268C8.66602 4.59935 9.26602 3.99935 9.99935 3.99935ZM9.99935 9.33268C8.21935 9.33268 4.66602 10.226 4.66602 11.9993V13.3327H15.3327V11.9993C15.3327 10.226 11.7793 9.33268 9.99935 9.33268ZM5.99935 11.9993C6.14602 11.5193 8.20602 10.666 9.99935 10.666C11.7993 10.666 13.866 11.526 13.9993 11.9993H5.99935Z" fill="#182F35"/>
<path d="M3.33268 6.66602V4.66602L5.99935 7.33268L3.33268 9.99935L3.33268 7.99935H0.666016V6.66602H3.33268Z" fill="#182F35"/>
</g>
<defs>
<clipPath id="clip0_1144_35115">
<rect width="16" height="16" fill="white"/>
</clipPath>
</defs>
</svg>
