<svg width="16" height="16" viewBox="0 0 16 16" fill="#182F35" xmlns="http://www.w3.org/2000/svg">
<g clip-path="url(#clip0_4054_19459)">
<path d="M2.5987 8.00008C2.5987 6.86008 3.52536 5.93341 4.66536 5.93341H7.33203V4.66675H4.66536C2.82536 4.66675 1.33203 6.16008 1.33203 8.00008C1.33203 9.84008 2.82536 11.3334 4.66536 11.3334H7.33203V10.0667H4.66536C3.52536 10.0667 2.5987 9.14008 2.5987 8.00008ZM5.33203 8.66675H10.6654V7.33341H5.33203V8.66675ZM11.332 4.66675H8.66536V5.93341H11.332C12.472 5.93341 13.3987 6.86008 13.3987 8.00008C13.3987 9.14008 12.472 10.0667 11.332 10.0667H8.66536V11.3334H11.332C13.172 11.3334 14.6654 9.84008 14.6654 8.00008C14.6654 6.16008 13.172 4.66675 11.332 4.66675Z"/>
</g>
<defs>
<clipPath id="clip0_4054_19459">
<rect width="16" height="16" fill="white"/>
</clipPath>
</defs>
</svg>
