<svg width="16" height="16" viewBox="0 0 16 16" fill="#FA3C30" xmlns="http://www.w3.org/2000/svg">
<g clip-path="url(#clip0_2336_1463)">
<path d="M2.66675 7C2.11341 7 1.66675 7.44667 1.66675 8C1.66675 8.55333 2.11341 9 2.66675 9C3.22008 9 3.66675 8.55333 3.66675 8C3.66675 7.44667 3.22008 7 2.66675 7ZM2.66675 3C2.11341 3 1.66675 3.44667 1.66675 4C1.66675 4.55333 2.11341 5 2.66675 5C3.22008 5 3.66675 4.55333 3.66675 4C3.66675 3.44667 3.22008 3 2.66675 3ZM2.66675 11C2.11341 11 1.66675 11.4533 1.66675 12C1.66675 12.5467 2.12008 13 2.66675 13C3.21341 13 3.66675 12.5467 3.66675 12C3.66675 11.4533 3.22008 11 2.66675 11ZM4.66675 12.6667H14.0001V11.3333H4.66675V12.6667ZM4.66675 8.66667H14.0001V7.33333H4.66675V8.66667ZM4.66675 3.33333V4.66667H14.0001V3.33333H4.66675Z" />
</g>
<defs>
<clipPath id="clip0_2336_1463">
<rect width="16" height="16" fill="white"/>
</clipPath>
</defs>
</svg>
