<svg width="18" height="18" viewBox="0 0 18 18" fill="#FA3C30" xmlns="http://www.w3.org/2000/svg">
<path d="M14.0013 9.83334V15.6667H2.33464V4.00001H6.51797C6.55964 3.40834 6.7013 2.85001 6.91797 2.33334H2.33464C1.41797 2.33334 0.667969 3.08334 0.667969 4.00001V15.6667C0.667969 16.5833 1.41797 17.3333 2.33464 17.3333H14.0013C14.918 17.3333 15.668 16.5833 15.668 15.6667V11.5L14.0013 9.83334ZM12.7513 14H3.58464L5.8763 11.0583L7.50964 13.025L9.8013 10.075L12.7513 14ZM15.0846 6.40834C15.4513 5.82501 15.668 5.15 15.668 4.41667C15.668 2.34167 13.993 0.666672 11.918 0.666672C9.84297 0.666672 8.16797 2.34167 8.16797 4.41667C8.16797 6.49167 9.84297 8.16667 11.9096 8.16667C12.643 8.16667 13.3263 7.95001 13.9013 7.58334L16.5013 10.1833L17.6846 9L15.0846 6.40834ZM11.918 6.5C10.768 6.5 9.83463 5.56667 9.83463 4.41667C9.83463 3.26667 10.768 2.33334 11.918 2.33334C13.068 2.33334 14.0013 3.26667 14.0013 4.41667C14.0013 5.56667 13.068 6.5 11.918 6.5Z" />
</svg>
