<svg width="20" height="20" viewBox="0 0 20 20" fill="none" xmlns="http://www.w3.org/2000/svg">
<g clip-path="url(#clip0_740_15781)">
<path d="M9.58333 1.66699C5.675 1.66699 2.5 4.84199 2.5 8.75033C2.5 12.6587 5.675 15.8337 9.58333 15.8337H10V18.3337C14.05 16.3837 16.6667 12.5003 16.6667 8.75033C16.6667 4.84199 13.4917 1.66699 9.58333 1.66699ZM10.4167 13.7503H8.75V12.0837H10.4167V13.7503ZM10.4167 10.8337H8.75C8.75 8.12533 11.25 8.33366 11.25 6.66699C11.25 5.75033 10.5 5.00033 9.58333 5.00033C8.66667 5.00033 7.91667 5.75033 7.91667 6.66699H6.25C6.25 4.82533 7.74167 3.33366 9.58333 3.33366C11.425 3.33366 12.9167 4.82533 12.9167 6.66699C12.9167 8.75033 10.4167 8.95866 10.4167 10.8337Z" fill="#F4BF02"/>
</g>
<defs>
<clipPath id="clip0_740_15781">
<rect width="20" height="20" fill="white"/>
</clipPath>
</defs>
</svg>
