<svg width="20" height="20" viewBox="0 0 20 20" fill="currentColor" xmlns="http://www.w3.org/2000/svg">
<g clip-path="url(#clip0_2013_3738)">
<path d="M14.7065 5.29171C13.4982 4.08337 11.8398 3.33337 9.99818 3.33337C6.31484 3.33337 3.33984 6.31671 3.33984 10C3.33984 13.6834 6.31484 16.6667 9.99818 16.6667C13.1065 16.6667 15.6982 14.5417 16.4398 11.6667H14.7065C14.0232 13.6084 12.1732 15 9.99818 15C7.23984 15 4.99818 12.7584 4.99818 10C4.99818 7.24171 7.23984 5.00004 9.99818 5.00004C11.3815 5.00004 12.6148 5.57504 13.5148 6.48337L10.8315 9.16671H16.6648V3.33337L14.7065 5.29171Z" fill="currentColor"/>
</g>
<defs>
<clipPath id="clip0_2013_3738">
<rect width="20" height="20" fill="currentColor"/>
</clipPath>
</defs>
</svg>
