<svg width="16" height="16" viewBox="0 0 16 16" fill="#182F35" xmlns="http://www.w3.org/2000/svg">
<g clip-path="url(#clip0_3492_17591)">
<path d="M12.6667 5.33341L10 8.00008H12C12 10.2067 10.2067 12.0001 8.00002 12.0001C7.32669 12.0001 6.68669 11.8334 6.13335 11.5334L5.16002 12.5067C5.98002 13.0267 6.95335 13.3334 8.00002 13.3334C10.9467 13.3334 13.3334 10.9467 13.3334 8.00008H15.3334L12.6667 5.33341ZM4.00002 8.00008C4.00002 5.79341 5.79335 4.00008 8.00002 4.00008C8.67335 4.00008 9.31335 4.16675 9.86669 4.46675L10.84 3.49341C10.02 2.97341 9.04669 2.66675 8.00002 2.66675C5.05335 2.66675 2.66669 5.05341 2.66669 8.00008H0.666687L3.33335 10.6667L6.00002 8.00008H4.00002Z" />
</g>
<defs>
<clipPath id="clip0_3492_17591">
<rect width="16" height="16" fill="white"/>
</clipPath>
</defs>
</svg>
