<svg width="20" height="20" viewBox="0 0 20 20" fill="none" xmlns="http://www.w3.org/2000/svg">
<g clip-path="url(#clip0_6576_12781)">
<path d="M9.99935 1.6665C5.39935 1.6665 1.66602 5.39984 1.66602 9.99984C1.66602 14.5998 5.39935 18.3332 9.99935 18.3332C14.5993 18.3332 18.3327 14.5998 18.3327 9.99984C18.3327 5.39984 14.5993 1.6665 9.99935 1.6665ZM9.99935 16.6665C6.31602 16.6665 3.33268 13.6832 3.33268 9.99984C3.33268 8.45817 3.85768 7.0415 4.74102 5.9165L14.0827 15.2582C12.9577 16.1415 11.541 16.6665 9.99935 16.6665ZM15.2577 14.0832L5.91602 4.7415C7.04102 3.85817 8.45768 3.33317 9.99935 3.33317C13.6827 3.33317 16.666 6.3165 16.666 9.99984C16.666 11.5415 16.141 12.9582 15.2577 14.0832Z" fill="#182F35"/>
</g>
<defs>
<clipPath id="clip0_6576_12781">
<rect width="20" height="20" fill="white"/>
</clipPath>
</defs>
</svg>
