<svg width="16" height="16" viewBox="0 0 16 16" fill="none" xmlns="http://www.w3.org/2000/svg">
<g clip-path="url(#clip0_4681_9988)">
<path d="M5.99967 7.99998C7.28634 7.99998 8.33301 6.95331 8.33301 5.66665C8.33301 4.37998 7.28634 3.33331 5.99967 3.33331C4.71301 3.33331 3.66634 4.37998 3.66634 5.66665C3.66634 6.95331 4.71301 7.99998 5.99967 7.99998ZM5.99967 4.66665C6.55301 4.66665 6.99967 5.11331 6.99967 5.66665C6.99967 6.21998 6.55301 6.66665 5.99967 6.66665C5.44634 6.66665 4.99967 6.21998 4.99967 5.66665C4.99967 5.11331 5.44634 4.66665 5.99967 4.66665ZM6.03301 11.3333H3.17967C3.83967 11 4.97967 10.6666 5.99967 10.6666C6.07301 10.6666 6.15301 10.6733 6.22634 10.6733C6.45301 10.1866 6.84634 9.78665 7.31967 9.46665C6.83301 9.37998 6.37301 9.33331 5.99967 9.33331C4.43967 9.33331 1.33301 10.1133 1.33301 11.6666V12.6666H5.99967V11.6666C5.99967 11.5533 6.01301 11.44 6.03301 11.3333ZM10.9997 9.66665C9.77301 9.66665 7.33301 10.34 7.33301 11.6666V12.6666H14.6663V11.6666C14.6663 10.34 12.2263 9.66665 10.9997 9.66665ZM11.8063 8.45331C12.313 8.16665 12.6663 7.62665 12.6663 6.99998C12.6663 6.07998 11.9197 5.33331 10.9997 5.33331C10.0797 5.33331 9.33301 6.07998 9.33301 6.99998C9.33301 7.62665 9.68634 8.16665 10.193 8.45331C10.433 8.58665 10.7063 8.66665 10.9997 8.66665C11.293 8.66665 11.5663 8.58665 11.8063 8.45331Z" fill="#FA3C30"/>
</g>
<defs>
<clipPath id="clip0_4681_9988">
<rect width="16" height="16" fill="white"/>
</clipPath>
</defs>
</svg>
