<svg width="17" height="16" viewBox="0 0 17 16"  fill="white" xmlns="http://www.w3.org/2000/svg">
<g clip-path="url(#clip0_1960_5311)">
<path d="M5.16797 12C4.43464 12 3.8413 12.6 3.8413 13.3334C3.8413 14.0667 4.43464 14.6667 5.16797 14.6667C5.9013 14.6667 6.5013 14.0667 6.5013 13.3334C6.5013 12.6 5.9013 12 5.16797 12ZM11.8346 12C11.1013 12 10.508 12.6 10.508 13.3334C10.508 14.0667 11.1013 14.6667 11.8346 14.6667C12.568 14.6667 13.168 14.0667 13.168 13.3334C13.168 12.6 12.568 12 11.8346 12ZM5.2813 9.83337L5.3013 9.75337L5.9013 8.66671H10.868C11.368 8.66671 11.808 8.39337 12.0346 7.98004L14.608 3.30671L13.448 2.66671L12.708 4.00004L10.868 7.33337H6.18797L6.1013 7.15337L4.60797 4.00004L3.97464 2.66671L3.34797 1.33337H1.16797V2.66671H2.5013L4.9013 7.72671L4.0013 9.36004C3.89464 9.54671 3.83464 9.76671 3.83464 10C3.83464 10.7334 4.43464 11.3334 5.16797 11.3334H13.168V10H5.44797C5.3613 10 5.2813 9.92671 5.2813 9.83337Z"/>
<path d="M12.708 4.00004L13.448 2.66671H3.97464L4.60797 4.00004H12.708Z" fill="white"/>
</g>
<defs>
<clipPath id="clip0_1960_5311">
<rect width="16" height="16" fill="white" transform="translate(0.5)"/>
</clipPath>
</defs>
</svg>
